<?xml version="1.0" encoding="utf-8"?>
<!-- Generator: Adobe Illustrator 24.1.2, SVG Export Plug-In . SVG Version: 6.00 Build 0)  -->
<svg version="1.1" id="Capa_1" xmlns="http://www.w3.org/2000/svg" xmlns:xlink="http://www.w3.org/1999/xlink" x="0px" y="0px"
	 viewBox="0 0 512 512" style="enable-background:new 0 0 512 512;" xml:space="preserve">
<style type="text/css">
	.st0{fill:#B2B2B2;}
</style>
<g>
	<g>
		<path class="st0" d="M411.8,184.2c-0.1-0.7-0.2-1.3-0.4-1.9c-1.5-9.3-9.2-16.5-18.9-16.5h-273c-9.7,0-17.4,7.2-18.9,16.5
			c-0.2,0.6-0.3,1.3-0.4,1.9c0,0.4-0.2,0.7-0.2,1.1v175.5c0,0.4,0.2,0.7,0.2,1.1c0.1,0.7,0.2,1.3,0.4,1.9
			c1.5,9.3,9.2,16.5,18.9,16.5h273c9.7,0,17.4-7.2,18.9-16.5c0.2-0.6,0.3-1.3,0.4-1.9c0-0.4,0.2-0.7,0.2-1.1V185.3
			C412,184.9,411.8,184.6,411.8,184.2z M385.8,185.3l-108.2,79.4L256,280.4l-21.5-15.8c0,0,0,0,0,0l-108.2-79.4H385.8z M119.5,204.5
			l93.4,68.5l-93.4,68.5V204.5z M126.2,360.8l103.2-75.6l20.8,15.2c1.7,1.3,3.7,1.9,5.8,1.9c2,0,4.1-0.6,5.8-1.9l20.8-15.2
			l103.2,75.6H126.2z M392.5,341.5L299.1,273l93.4-68.5V341.5z"/>
	</g>
</g>
</svg>
