<?xml version="1.0" encoding="utf-8"?>
<!-- Generator: Adobe Illustrator 24.1.2, SVG Export Plug-In . SVG Version: 6.00 Build 0)  -->
<svg version="1.1" id="Capa_1" xmlns="http://www.w3.org/2000/svg" xmlns:xlink="http://www.w3.org/1999/xlink" x="0px" y="0px"
	 viewBox="0 0 512 512" style="enable-background:new 0 0 512 512;" xml:space="preserve">
<style type="text/css">
	.st0{fill:#B2B2B2;}
</style>
<g>
	<g>
		<g>
			<circle class="st0" cx="321" cy="307.3" r="11.4"/>
			<path class="st0" d="M372.3,316.5c6.3,0,11.4-5.1,11.4-11.4v-42.2c0-25.2-20.5-45.6-45.6-45.6h-13.7V177c0-36.9-30.7-67-68.4-67
				s-68.4,30.1-68.4,67v40.2h-13.7c-25.2,0-45.6,20.5-45.6,45.6v93.5c0,25.2,20.5,45.6,45.6,45.6h164.3c25.2,0,45.6-20.5,45.6-45.6
				c0-6.3-5.1-11.4-11.4-11.4s-11.4,5.1-11.4,11.4c0,12.6-10.2,22.8-22.8,22.8H173.9c-12.6,0-22.8-10.2-22.8-22.8v-93.5
				c0-12.6,10.2-22.8,22.8-22.8h164.3c12.6,0,22.8,10.2,22.8,22.8V305C360.9,311.3,366,316.5,372.3,316.5z M301.6,217.2h-91.3V177
				c0-24.4,20.5-44.2,45.6-44.2s45.6,19.8,45.6,44.2V217.2z"/>
			<circle class="st0" cx="234.9" cy="307.3" r="11.4"/>
			<circle class="st0" cx="192.1" cy="307.3" r="11.4"/>
			<circle class="st0" cx="277.7" cy="307.3" r="11.4"/>
		</g>
	</g>
</g>
</svg>
