<svg id="Layer_3" enable-background="new 0 0 64 64" height="512" viewBox="0 0 64 64" width="512" xmlns="http://www.w3.org/2000/svg"><path d="m40 62h-26c-1.657 0-3-1.343-3-3v-54c0-1.657 1.343-3 3-3h26c1.657 0 3 1.343 3 3v54c0 1.657-1.343 3-3 3z" fill="#717072"/><path d="m40 59v-54c0-1.657-1.343-3-3-3h-23c-1.657 0-3 1.343-3 3v54c0 1.657 1.343 3 3 3h23c1.657 0 3-1.343 3-3z" fill="#979598"/><path d="m31 58h-8c-.552 0-1-.448-1-1v-2c0-.552.448-1 1-1h8c.552 0 1 .448 1 1v2c0 .552-.448 1-1 1z" fill="#aaa9aa"/><path d="m29 57v-2c0-.552-.448-1-1-1h-5c-.552 0-1 .448-1 1v2c0 .552.448 1 1 1h5c.552 0 1-.448 1-1z" fill="#e3e1e3"/><path d="m33 6 4-4h-20l4 4z" fill="#aaa9aa"/><path d="m17 2 4 4h9l4-4z" fill="#e3e1e3"/><path d="m11 10h32v40h-32z" fill="#93a7bf"/><path d="m11 10h29v40h-29z" fill="#c4deff"/><circle cx="37" cy="30" fill="#9ab878" r="16"/><ellipse cx="35.5" cy="30" fill="#cdf5a0" rx="14.5" ry="15.924"/><ellipse cx="41" cy="23" fill="#c9c6ca" rx="2" ry="3"/><path d="m42 41h-2c-.552 0-1-.448-1-1v-4c0-.552.448-1 1-1h2c.552 0 1 .448 1 1v4c0 .552-.448 1-1 1z" fill="#c9c6ca"/><path d="m34 41h-2c-.552 0-1-.448-1-1v-4c0-.552.448-1 1-1h2c.552 0 1 .448 1 1v4c0 .552-.448 1-1 1z" fill="#c9c6ca"/><g fill="#979598"><path d="m34 27h-2c-1.103 0-2-.897-2-2v-6h2v6h2v-6h2v6c0 1.103-.897 2-2 2z"/><path d="m32 26h2v9h-2z"/><path d="m40 26h2v9h-2z"/><path d="m41 27c-1.683 0-3-1.757-3-4s1.317-4 3-4 3 1.757 3 4-1.317 4-3 4zm0-6c-.408 0-1 .779-1 2s.592 2 1 2 1-.779 1-2-.592-2-1-2z"/></g></svg>